<?xml version="1.0" encoding="UTF-8" standalone="no"?><!DOCTYPE svg PUBLIC "-//W3C//DTD SVG 1.1//EN" "http://www.w3.org/Graphics/SVG/1.1/DTD/svg11.dtd"><svg width="100%" height="100%" viewBox="0 0 736 250" version="1.1" xmlns="http://www.w3.org/2000/svg" xmlns:xlink="http://www.w3.org/1999/xlink" xml:space="preserve" xmlns:serif="http://www.serif.com/" style="fill-rule:evenodd;clip-rule:evenodd;stroke-linejoin:round;stroke-miterlimit:2;"><clipPath id="_clip1"><rect x="472.956" y="4.724" width="260.773" height="230.551"/></clipPath><g clip-path="url(#_clip1)"><g><path d="M596.814,24.406l1.81,1.224l0,210.41l-6.412,-4.328c-0.057,-0.037 -6.291,-4.172 -17.612,-8.251c-10.432,-3.755 -27.447,-8.234 -49.274,-8.234c-26.203,0 -45.165,6.283 -45.355,6.346l-5.421,1.828l-0.003,-5.723l0,-203.441l2.795,-0.944c0.816,-0.277 20.35,-6.78 47.985,-6.78c44.463,0 70.405,17.161 71.488,17.892Z" style="fill:#00848b;fill-rule:nonzero;"/><path d="M732.555,14.238l0,209.174l-5.43,-1.838c-0.184,-0.063 -19.146,-6.346 -45.349,-6.346c-41.97,0 -66.642,16.321 -66.886,16.485l-6.415,4.328l0,-210.41l1.813,-1.224c1.083,-0.73 27.025,-17.892 71.488,-17.892c27.635,0 47.168,6.503 47.985,6.78l2.795,0.944Z" style="fill:#00848b;fill-rule:nonzero;"/></g></g><clipPath id="_clip2"><rect x="1.27" y="42.298" width="446.533" height="202.978"/></clipPath><g clip-path="url(#_clip2)"><path id="الدفتر" d="M128.53,195.286l0,-21.252c1.355,0 2.279,0.986 2.772,2.957c0.616,1.848 0.924,4.374 0.924,7.577c0,3.203 -0.308,5.79 -0.924,7.762c-0.493,1.971 -1.417,2.957 -2.772,2.957Zm0,-0l-7.577,0c-8.624,0 -15.646,-1.294 -21.067,-3.881c-5.421,-2.71 -9.425,-6.776 -12.012,-12.197c-2.587,-5.421 -3.881,-12.258 -3.881,-20.513l0,-52.483l18.665,0l0,52.483c0,4.189 0.431,7.392 1.294,9.61c0.862,2.218 2.587,3.758 5.174,4.62c2.71,0.739 6.653,1.109 11.827,1.109l7.577,0l0,21.252Zm-66.343,-50.451c-6.406,0 -12.69,-0.431 -18.85,-1.294c-6.16,-0.986 -12.135,-2.341 -17.926,-4.066l0,-22.176c5.298,1.971 10.965,3.511 17.002,4.62c6.16,1.109 12.751,1.663 19.774,1.663c7.022,0 13.552,-0.554 19.589,-1.663c6.16,-1.109 11.889,-2.649 17.186,-4.62l0,22.176c-5.667,1.725 -11.581,3.08 -17.741,4.066c-6.16,0.862 -12.505,1.294 -19.034,1.294Zm-57.658,99.607l-3.511,-20.513c5.914,0.123 10.657,-0.431 14.23,-1.663c3.573,-1.355 6.16,-3.573 7.762,-6.653c1.602,-3.08 2.402,-7.022 2.402,-11.827l0,-97.575l18.665,0l0,97.575c0,8.501 -1.602,15.77 -4.805,21.806c-3.203,6.037 -7.762,10.657 -13.675,13.86c-5.79,3.203 -12.813,4.866 -21.067,4.99Zm102.01,-160.776c-3.203,-0 -5.914,-1.047 -8.131,-3.142c-2.094,-2.218 -3.142,-4.928 -3.142,-8.131c0,-3.326 1.047,-6.037 3.142,-8.131c2.218,-2.094 4.928,-3.142 8.131,-3.142c3.203,0 5.852,1.047 7.946,3.142c2.218,2.094 3.326,4.805 3.326,8.131c0,3.203 -1.109,5.914 -3.326,8.131c-2.094,2.094 -4.743,3.142 -7.946,3.142Zm-26.242,0c-3.203,0 -5.914,-1.047 -8.131,-3.142c-2.094,-2.218 -3.142,-4.928 -3.142,-8.131c0,-3.326 1.047,-6.037 3.142,-8.131c2.218,-2.094 4.928,-3.142 8.131,-3.142c3.203,0 5.852,1.047 7.946,3.142c2.218,2.094 3.326,4.805 3.326,8.131c0,3.203 -1.109,5.914 -3.326,8.131c-2.094,2.094 -4.743,3.142 -7.946,3.142Zm155.417,111.619l-107.184,0l0,-21.252l88.519,0l0,-63.941l18.665,0l0,85.193Zm-44.352,-13.675l-4.99,13.306c-6.653,-2.218 -12.566,-5.482 -17.741,-9.794c-5.174,-4.312 -9.24,-9.548 -12.197,-15.708c-2.834,-6.16 -4.25,-12.936 -4.25,-20.328c0,-9.363 2.156,-17.679 6.468,-24.948c4.312,-7.392 10.102,-13.182 17.371,-17.371c7.269,-4.312 15.338,-6.468 24.209,-6.468c6.53,0 12.874,1.047 19.034,3.142c6.16,1.971 11.642,4.189 16.447,6.653l-8.316,19.034c-4.928,-2.464 -9.733,-4.312 -14.414,-5.544c-4.558,-1.355 -8.809,-2.033 -12.751,-2.033c-5.667,0 -10.718,1.232 -15.154,3.696c-4.435,2.341 -7.946,5.606 -10.534,9.794c-2.464,4.066 -3.696,8.747 -3.696,14.045c0,7.392 1.725,13.86 5.174,19.404c3.45,5.421 8.562,9.794 15.338,13.121Zm-62.832,-7.577l0,21.252c-1.355,0 -2.341,-0.986 -2.957,-2.957c-0.493,-1.971 -0.739,-4.62 -0.739,-7.946c0,-3.203 0.246,-5.729 0.739,-7.577c0.616,-1.848 1.602,-2.772 2.957,-2.772Zm71.703,-98.499c-3.45,0 -6.406,-1.17 -8.87,-3.511c-2.341,-2.464 -3.511,-5.421 -3.511,-8.87c0,-3.573 1.17,-6.53 3.511,-8.87c2.464,-2.341 5.421,-3.511 8.87,-3.511c3.573,0 6.53,1.17 8.87,3.511c2.341,2.341 3.511,5.298 3.511,8.87c0,3.45 -1.17,6.406 -3.511,8.87c-2.341,2.341 -5.298,3.511 -8.87,3.511Zm160.037,119.751l-35.482,0l0,-21.252l35.482,0l0,21.252Zm0,0l0,-21.252c1.355,0 2.279,0.986 2.772,2.957c0.616,1.848 0.924,4.374 0.924,7.577c0,3.203 -0.308,5.79 -0.924,7.762c-0.493,1.971 -1.417,2.957 -2.772,2.957Zm-14.784,-0l-18.665,0c-0.123,-13.182 -2.464,-24.948 -7.022,-35.297c-4.558,-10.349 -11.088,-18.973 -19.589,-25.872c-8.378,-6.899 -18.48,-11.704 -30.307,-14.414l4.25,-20.698c14.538,3.326 27.104,9.486 37.699,18.48c10.595,8.87 18.788,19.958 24.578,33.264c5.914,13.182 8.932,28.028 9.055,44.537Zm-3.881,0l-87.411,0l0,-21.252l87.411,0l0,21.252Zm61.231,0l-42.689,0l0,-21.252l24.024,0l0,-130.284l18.665,0l0,151.536Zm-42.689,-21.252l0,21.252c-1.355,0 -2.341,-0.986 -2.957,-2.957c-0.493,-1.971 -0.739,-4.62 -0.739,-7.946c0,-3.203 0.246,-5.729 0.739,-7.577c0.616,-1.848 1.602,-2.772 2.957,-2.772Zm87.657,21.252l-18.665,0l0,-151.536l18.665,0l0,151.536Z" style="fill:#00848b;fill-rule:nonzero;"/></g></svg>